<svg xmlns="http://www.w3.org/2000/svg" width="15.334" height="15.334"><defs><style>.a{fill:#f26522}</style></defs><path class="a" d="M7.667 0a7.667 7.667 0 1 0 7.667 7.667A7.676 7.676 0 0 0 7.667 0Zm0 14A6.334 6.334 0 1 1 14 7.667 6.341 6.341 0 0 1 7.667 14Z"/><path class="a" d="M11.236 4.098a.331.331 0 0 0-.367-.071l-4.667 2a.334.334 0 0 0-.175.175l-2 4.667a.333.333 0 0 0 .071.367.338.338 0 0 0 .236.1.35.35 0 0 0 .131-.027l4.667-2a.336.336 0 0 0 .175-.175l2-4.667a.334.334 0 0 0-.071-.369ZM7.667 8.334a.667.667 0 1 1 .667-.667.668.668 0 0 1-.667.667Z"/></svg>
