<svg xmlns="http://www.w3.org/2000/svg" viewBox="0 0 1080 1080" style="enable-background:new 0 0 1080 1080" xml:space="preserve"><path d="M1064 536.7C1063.6 240.7 823.8.9 527.8.5v102.1c239.6.3 433.8 194.5 434.1 434.1H1064zm-293.6 0h102.1c-.3-190.3-154.4-344.4-344.7-344.7v102.1c133.9-.1 242.5 108.4 242.6 242.3v.3z" style="fill:#1f276c" transform="translate(15.074)"/><path d="M29.5 458.2C8.3 407.6-1.5 353 .6 298.2c1.8-33.4 16.4-64.9 40.8-87.9 27.4-25.9 53.3-53 80.2-79.2 27.6-31.5 75.6-34.7 107.1-7.1 2.5 2.2 4.9 4.6 7.1 7.1 21.6 21.2 43.2 43 64.6 64.6 20.8 20.8 41.8 41.6 62.7 62.7 32.4 26.8 36.9 74.8 10.1 107.1-2.9 3.6-6.2 6.8-9.7 9.8-26.3 26.3-52.4 52.8-79.2 78.7-6.5 5-8.2 14-4 21 18.2 41.4 42.2 80 71.5 114.6 56.1 71.2 123.5 132.5 199.6 181.7 16.6 10.3 34.8 18 52.1 27.4 7.3 5 17.2 3.1 22.1-4.2 26.1-26.9 52.8-53.5 79.6-80 27.2-31.5 74.8-34.9 106.3-7.7 2.7 2.4 5.3 4.9 7.7 7.7 43 42.5 85.7 85.2 128.2 128.2 32 27.3 35.7 75.4 8.4 107.4-2.7 3.2-5.6 6.1-8.8 8.8-24.3 24.5-50 47.8-72.8 73.4-31.1 34.5-76.9 51.9-123.1 46.8-68.5-5.7-135.1-25-195.9-57-136.2-66-256.7-160.3-353.5-276.5A971.808 971.808 0 0 1 29.5 458.2z" style="fill:#ea5a0b" transform="translate(-.008)"/></svg>
