<svg version="1.1" id="Layer_1" xmlns="http://www.w3.org/2000/svg" x="0" y="0" viewBox="0 0 1080 1080" style="enable-background:new 0 0 1080 1080" xml:space="preserve"><style>.st4{fill:#283372}.st5{fill:#b7b7b7}.st6{fill:#ddd}</style><path d="M-.9 1050.2c0 17.5 14.2 31.7 31.7 31.7h1018.5c17.5 0 31.7-14.2 31.7-31.7V623.4l-33.8-31.7H32.9L-.9 623.4v426.8z" style="fill:#f26724"/><path d="M994.8 359.8c-4.3-12.9-16.5-21.7-30.1-21.7H115.3c-13.6 0-25.8 8.7-30.1 21.7L.7 613.4c-1.1 3.3-1.6 6.6-1.6 10h1081.8c0-3.4-.6-6.8-1.6-10l-84.5-253.6z" style="fill:#e28426"/><path d="M922.5 955.2h-765c-17.5 0-31.7-14.2-31.7-31.7V750.1c0-17.5 14.2-31.7 31.7-31.7h764.9c17.5 0 31.7 14.2 31.7 31.7v173.3c.1 17.6-14.1 31.8-31.6 31.8z" style="fill:#fbf3f3"/><path d="M922.5 718.5H540v236.7h382.5c17.5 0 31.7-14.2 31.7-31.7V750.1c0-17.4-14.2-31.6-31.7-31.6z" style="fill:#dedcee"/><path class="st4" d="M904.7 538.7H175.3c-23.2 0-42.1-18.9-42.1-42.1s18.9-42.1 42.1-42.1h729.5c23.2 0 42.1 18.9 42.1 42.1s-18.9 42.1-42.2 42.1z"/><path class="st4" d="M814.7 464.9H540v63.4h274.7c17.5 0 31.7-14.2 31.7-31.7s-14.2-31.7-31.7-31.7z"/><path class="st5" d="M244.9 135.1h588.6v371.7H244.9V135.1z"/><path class="st6" d="M244.9 11.2h588.6v309.9H244.9V11.2zM244.9 429.6h588.6v31H244.9v-31zM244.9 367.4h588.6v31H244.9v-31z"/><path class="st5" d="M725.2 259.1H353.4c0-25.6-20.8-46.4-46.4-46.4v-93c25.6 0 46.4-20.8 46.4-46.4h371.7c0 25.6 20.8 46.4 46.4 46.4v93c-25.5 0-46.3 20.8-46.3 46.4z"/><path class="st6" d="M368.9 150.7h31v31h-31v-31zM678.8 150.7h31v31h-31v-31z"/><circle class="st6" cx="539.2" cy="166.2" r="93"/><path d="M492.8 11.2h93v495.6h-93V11.2z" style="fill:#ffb431"/><path d="M492.8 321.1h93v185.7h-93V321.1z" style="fill:#f9a91b"/><path class="st5" d="M585.8 11.2h31v309.9h-31V11.2z"/><path class="st5" d="M585.8 73.2h31v186h-31v-186z"/><path d="M585.8 321.1h31v185.7h-31V321.1z" style="fill:#9b9b9b"/></svg>
