<svg version="1.1" id="Layer_1" xmlns="http://www.w3.org/2000/svg" x="0" y="0" viewBox="0 0 1080 1080" style="enable-background:new 0 0 1080 1080" xml:space="preserve"><style>.st1{fill:#babcbe}.st2{fill:#f26522}.st3{fill:#2f3787}.st4{fill:#fff}.st5{fill:#fe8639}</style><g id="Group_432" transform="translate(-6633.697 -2399.744)"><path id="Path_786" d="M7666.1 3421.3h-724.7c-68.3 0-123.7-55.4-123.7-123.7v-760.1c0-68.3-55.4-123.7-123.7-123.7h724.7c68.4 0 123.7 55.4 123.7 123.7v760.1c-.1 68.3 55.3 123.7 123.7 123.7z" style="fill:#e6e6e6"/><path class="st1" d="m7307.2 2744.5-98.5.1c-6.1 0-11.1-5.4-11.1-11.9l-.2-102.9c0-6.6 5-11.9 11.1-12l98.5-.1c6.1 0 11.1 5.4 11.1 11.9l.2 102.9c0 6.7-5 12-11.1 12zM7464.9 2743.8l-98.5.4c-6.1 0-11.1-5.3-11.1-11.9l-.4-102.9c0-6.6 4.9-12 11-12l98.5-.4c6.1 0 11.1 5.3 11.1 11.9l.4 102.9c0 6.6-4.8 12-11 12zM7307.9 2912.5l-98.5.4c-6.1 0-11.1-5.3-11.1-11.9l-.4-102.9c0-6.6 4.9-12 11-12l98.5-.4c6.1 0 11.1 5.3 11.1 11.9l.4 102.9c.2 6.7-4.8 12-11 12z"/><path class="st2" d="m7464.6 2911.9-98.5.4c-6.1 0-11.1-5.3-11.1-11.9l-.4-102.9c0-6.6 4.9-12 11-12l98.5-.4c6.1 0 11.1 5.3 11.1 11.9l.4 102.9c.1 6.6-4.9 12-11 12z"/><path class="st3" d="m7263.7 2676.4 28-.1c1.7 0 3.2.6 4.3 1.8 1.1 1.2 1.7 2.7 1.7 4.5 0 1.7-.6 3.2-1.7 4.3-1.1 1.1-2.6 1.6-4.4 1.6l-28 .1.1 31c0 2-.5 3.5-1.5 4.8-1.1 1.2-2.4 1.8-4.1 1.8-1.5 0-2.9-.7-4-2s-1.7-2.9-1.7-4.6l-.1-31-27.8.1c-1.8 0-3.3-.6-4.4-1.6-1.1-1.1-1.7-2.5-1.7-4.3 0-1.6.6-3.2 1.8-4.4 1.2-1.2 2.7-1.9 4.3-1.9l27.8-.1-.1-30.9c0-2 .5-3.5 1.6-4.8 1.1-1.2 2.5-1.8 4.1-1.8 1.7 0 3.2.6 4.1 1.8 1.1 1.2 1.5 2.8 1.5 4.8l.2 30.9zM7384.1 2690.1c-1.1 0-1.8-.4-2.4-1.1-.6-.7-.9-1.6-.9-2.9v-8.8c0-1.1.3-1.9.9-2.5.6-.6 1.4-1 2.4-1l63.9-.2c1.1 0 2.1.3 2.8.9.7.6 1.1 1.4 1.1 2.5v8.8c0 1-.4 1.9-1.1 2.7s-1.6 1.2-2.6 1.2l-64.1.4z"/><path class="st4" d="M7382.7 2840.4c-1.1 0-1.8-.4-2.4-1.1-.6-.7-.9-1.6-.9-2.9v-8.8c0-1.1.3-1.9.9-2.5.6-.6 1.4-1 2.4-1l63.9-.2c1.1 0 2.1.3 2.8.9.7.6 1.1 1.4 1.1 2.5v8.8c0 1-.4 1.9-1.1 2.7-.8.8-1.6 1.2-2.6 1.2l-64.1.4zM7382.8 2872.6c-1.1 0-1.8-.4-2.4-1.1-.6-.7-.9-1.6-.9-2.9v-8.8c0-1.1.3-1.9.9-2.5.6-.6 1.4-1 2.4-1l63.9-.2c1.1 0 2.1.3 2.8.9.7.6 1.1 1.4 1.1 2.5v8.8c0 1-.4 1.9-1.1 2.7-.8.8-1.6 1.2-2.6 1.2l-64.1.4z"/><path class="st3" d="M7226.5 2854.5c-1.1 0-1.8-.4-2.4-1.1-.6-.7-.9-1.6-.9-2.9v-8.8c0-1.1.3-1.9.9-2.5.6-.6 1.4-1 2.4-1l63.9-.2c1.1 0 2.1.3 2.8.9.7.6 1.1 1.4 1.1 2.5v8.8c0 1-.4 1.9-1.1 2.7-.8.8-1.6 1.2-2.6 1.2l-64.1.4zM7266.9 2825.7c0 4.9-3.6 8.9-8.2 8.9s-8.3-3.9-8.3-8.9c0-4.9 3.6-8.9 8.2-8.9 4.5-.1 8.3 4 8.3 8.9zM7267 2866.9c0 4.9-3.6 8.9-8.2 8.9s-8.3-3.9-8.3-8.9c0-4.9 3.6-8.9 8.2-8.9 4.5 0 8.3 4 8.3 8.9z"/></g><path class="st1" d="M257 85h619v96H257zM257 226h244v36H257zM257 303h244v36H257zM257 380h244v36H257zM257 457h244v36H257z"/><path class="st2" d="M60.2 699.6h602.6v380.6H60.2V699.6z"/><path class="st5" d="M60.2 572.7h602.6v317.1H60.2V572.7zM60.2 1001h602.6v31.7H60.2V1001zM60.2 937.5h602.6v31.7H60.2v-31.7z"/><path class="st2" d="M551.8 826.5H171.2c0-26.2-21.4-47.6-47.6-47.6v-95.1c26.2 0 47.6-21.4 47.6-47.6h380.6c0 26.2 21.4 47.6 47.6 47.6V779c-26.2 0-47.6 21.4-47.6 47.5z"/><path class="st5" d="M187.1 715.5h31.7v31.7h-31.7v-31.7zM504.2 715.5h31.7v31.7h-31.7v-31.7z"/><circle class="st5" cx="361.5" cy="731.4" r="95.1"/><path d="M313.9 572.7H409v507.4h-95.1V572.7z" style="fill:#ffb431"/><path d="M313.9 890H409v190.2h-95.1V890z" style="fill:#f9a91b"/><path class="st2" d="M409.1 572.7h31.7v317.1h-31.7V572.7z"/><path class="st2" d="M409.1 636.4h31.7v190.4h-31.7V636.4zM409.1 890h31.7v190.2h-31.7V890z"/></svg>
