<?xml version="1.0" encoding="utf-8"?>
<!-- Generator: Adobe Illustrator 26.0.2, SVG Export Plug-In . SVG Version: 6.00 Build 0)  -->
<svg version="1.1" id="Layer_1" xmlns="http://www.w3.org/2000/svg" xmlns:xlink="http://www.w3.org/1999/xlink" x="0px" y="0px"
	 viewBox="0 0 1080 1080" style="enable-background:new 0 0 1080 1080;" xml:space="preserve">
<style type="text/css">
	.st0{fill:#283371;}
	.st1{fill:#F7BE9D;}
	.st2{fill:#53C2C9;}
	.st3{fill:#F26724;}
	.st4{fill:#FFFFFF;}
</style>
<g>
	<path class="st0" d="M981.93,0H614.79v1080h367.13c45.8,0,82.93-39.64,82.93-88.54V88.54C1064.85,39.64,1027.73,0,981.93,0z"/>
	<rect x="892.77" y="60.58" class="st1" width="121.99" height="104.69"/>
	<rect x="892.77" y="222.8" class="st1" width="121.99" height="104.69"/>
	<rect x="892.77" y="385.02" class="st1" width="121.99" height="104.69"/>
	<rect x="83.99" y="606.82" class="st2" width="13.94" height="73.08"/>
	<rect x="83.99" y="431.81" class="st2" width="13.94" height="73.09"/>
	<rect x="83.99" y="256.81" class="st2" width="13.94" height="73.08"/>
	<path class="st3" d="M862.88,545.05V0H172.53c-48.9,0-88.54,39.64-88.54,88.54v902.93c0,48.89,39.64,88.54,88.54,88.54h753.71
		c48.89,0,88.53-39.64,88.53-88.54V545.05H862.88z"/>
	<path class="st0" d="M171.79,162.54H88.08H50.7c-19.64,0-35.55,15.91-35.55,35.55v15.52c0,19.63,15.91,35.56,35.55,35.56h37.38
		h83.71c19.64,0,35.55-15.93,35.55-35.56v-15.52C207.34,178.45,191.43,162.54,171.79,162.54z"/>
	<path class="st0" d="M171.79,337.53H88.08H50.7c-19.64,0-35.55,15.92-35.55,35.55v15.53c0,19.63,15.91,35.55,35.55,35.55h37.38
		h83.71c19.64,0,35.55-15.92,35.55-35.55v-15.53C207.34,353.46,191.43,337.53,171.79,337.53z"/>
	<path class="st0" d="M171.79,512.54H88.08H50.7c-19.64,0-35.55,15.91-35.55,35.55v15.52c0,19.63,15.91,35.55,35.55,35.55h37.38
		h83.71c19.64,0,35.55-15.91,35.55-35.55V548.1C207.34,528.46,191.43,512.54,171.79,512.54z"/>
	<path class="st0" d="M171.79,687.54H88.08H50.7c-19.64,0-35.55,15.92-35.55,35.55v15.53c0,19.64,15.91,35.55,35.55,35.55h37.38
		h83.71c19.64,0,35.55-15.92,35.55-35.55v-15.53C207.34,703.46,191.43,687.54,171.79,687.54z"/>
	<path class="st0" d="M171.79,862.54H88.08H50.7c-19.64,0-35.55,15.91-35.55,35.55v15.53c0,19.63,15.91,35.55,35.55,35.55h37.38
		h83.71c19.64,0,35.55-15.91,35.55-35.55v-15.53C207.34,878.46,191.43,862.54,171.79,862.54z"/>
</g>
<g>
	<path class="st4" d="M693.33,506.17H386.67c-25.86,0-46.83,20.97-46.83,46.83v144.72h400.34V553.01
		C740.17,527.13,719.2,506.17,693.33,506.17z"/>
	
		<ellipse transform="matrix(0.7071 -0.7071 0.7071 0.7071 -97.29 487.6403)" class="st4" cx="539.99" cy="361.26" rx="109.01" ry="109.01"/>
</g>
</svg>
