<svg xmlns="http://www.w3.org/2000/svg" width="41.221" height="39.428"><defs><style>.b{fill:#f8bf9d}</style></defs><path d="M49.545 12.514 34.473 23.41 32 25.2a3.71 3.71 0 0 1-4.409 0l-2.473-1.79-15.091-10.878a4.456 4.456 0 0 1 3.638-1.864h32.26a4.481 4.481 0 0 1 3.62 1.846Z" transform="translate(-9.185 -10.668)" style="fill:#fdc"/><path class="b" d="m.842 1.864 15.09 10.879L1.308 27.367A4.481 4.481 0 0 1 0 24.195V4.481a4.427 4.427 0 0 1 .842-2.617ZM41.221 4.481v19.714a4.481 4.481 0 0 1-1.308 3.172L25.288 12.743l15.073-10.9a4.455 4.455 0 0 1 .86 2.638Z"/><path d="M144.13 257.878c-1.19 0-1.792-.9-1.792-2.688a4.534 4.534 0 1 0-1.091 2.9 3.2 3.2 0 0 0 2.884 1.583c3.584 0 3.584-3.373 3.584-4.481a9.857 9.857 0 1 0-3 7.085.9.9 0 0 0-1.255-1.289 8.065 8.065 0 1 1 2.466-5.8c-.004 2.012-.455 2.69-1.796 2.69Zm-6.273 0a2.688 2.688 0 1 1 2.688-2.688 2.688 2.688 0 0 1-2.688 2.688Z" transform="translate(-117.247 -225.618)" style="fill:#1f276c"/><path d="m39.554 162.348-2.473 1.792a3.71 3.71 0 0 1-4.409 0l-2.472-1.792-14.626 14.625a4.48 4.48 0 0 0 3.172 1.308h4.525a11.637 11.637 0 0 1 23.208 0h4.527a4.481 4.481 0 0 0 3.172-1.308Z" transform="translate(-14.266 -149.606)" style="fill:#ea5a0b"/></svg>
