<svg xmlns="http://www.w3.org/2000/svg" width="19.071" height="21.699"><defs><style>.a{fill:#f26522}</style></defs><path class="a" d="M15.892 0H3.18A3.182 3.182 0 0 0 0 3.179v3.814a.636.636 0 0 0 .636.636h4.45v13.434a.636.636 0 0 0 .963.545l6.03-3.618 6.03 3.618a.636.636 0 0 0 .963-.545V3.179A3.182 3.182 0 0 0 15.892 0ZM5.086 6.357H1.271V3.179a1.909 1.909 0 0 1 1.907-1.907 1.909 1.909 0 0 1 1.907 1.907ZM17.8 19.94l-5.395-3.24a.636.636 0 0 0-.654 0l-5.394 3.24V3.179a3.162 3.162 0 0 0-.634-1.9h10.169a1.909 1.909 0 0 1 1.908 1.9Z"/><path class="a" d="m15.831 8.415-2.2-.32-.984-1.993a.636.636 0 0 0-1.14 0l-.984 1.993-2.2.32a.636.636 0 0 0-.352 1.084l1.592 1.551-.376 2.191a.636.636 0 0 0 .922.67l1.967-1.034 1.967 1.034a.636.636 0 0 0 .922-.67l-.376-2.191 1.594-1.55a.636.636 0 0 0-.352-1.085Zm-2.366 1.959a.636.636 0 0 0-.183.563l.214 1.25-1.123-.59a.636.636 0 0 0-.592 0l-1.123.59.214-1.25a.636.636 0 0 0-.183-.563l-.908-.886 1.255-.182a.636.636 0 0 0 .479-.348l.562-1.138.561 1.138a.636.636 0 0 0 .479.348l1.255.182Z"/></svg>
