<svg xmlns="http://www.w3.org/2000/svg" width="12.765" height="17.148"><defs><style>.a{fill:#f26522}</style></defs><path class="a" d="M5.818 13.723a.717.717 0 0 0 .058.052l.029.021.034.025.035.021.032.019.036.017.034.016.036.013.038.013.036.009.039.01.042.006.035.005a.8.8 0 0 0 .157 0l.035-.005.042-.006.039-.01.036-.009.038-.013.036-.013.034-.016.036-.017.032-.019.035-.021.034-.025.028-.021c.02-.017.04-.034.058-.052l5.585-5.585a.8.8 0 0 0-1.124-1.128L7.18 11.233V.8a.8.8 0 0 0-1.6 0v10.432L1.366 7.01A.8.8 0 0 0 .238 8.138ZM11.966 15.552H.798a.8.8 0 0 0 0 1.6h11.168a.8.8 0 0 0 0-1.6Z"/></svg>
