<svg version="1.1" id="Countryflags.com" xmlns="http://www.w3.org/2000/svg" xmlns:xlink="http://www.w3.org/1999/xlink" x="0" y="0" viewBox="0 0 300 300" style="enable-background:new 0 0 300 300" xml:space="preserve"><style>.st2{fill:#fff}.st4{fill:#008}</style><defs><circle id="SVGID_1_" cx="150" cy="150" r="150"/></defs><clipPath id="SVGID_00000109752449108827165050000014846697832810315425_"><use xlink:href="#SVGID_1_" style="overflow:visible"/></clipPath><g style="clip-path:url(#SVGID_00000109752449108827165050000014846697832810315425_)"><path id="_x35_3" style="fill:#f93" d="M-75 0h450v300H-75z"/><path id="_x35_2" class="st2" d="M-75 100h450v100H-75z"/><path id="_x35_1" style="fill:#128807" d="M-75 200h450v100H-75z"/><circle id="_x35_0" class="st4" cx="150" cy="150" r="40"/><circle id="_x34_9" class="st2" cx="150" cy="150" r="35"/><circle id="_x34_8" class="st4" cx="150" cy="150" r="7"/><path id="_x34_7" class="st4" d="M184.9 152.8c1 .1 1.6 1 1.5 2-.1 1-1 1.6-2 1.5-1-.1-1.6-1-1.5-2 .2-.9 1.1-1.6 2-1.5z"/><path id="_x34_6" class="st4" d="m150 185 1.2-21-1.2-10-1.2 10 1.2 21z"/><path id="_x34_5" class="st4" d="M183 161.8c.9.4 1.3 1.4.9 2.3s-1.4 1.3-2.3.9c-.9-.4-1.3-1.4-.9-2.3.4-.9 1.4-1.3 2.3-.9z"/><path id="_x34_4" class="st4" d="m140.9 183.8 6.6-20 1.4-10-3.7 9.3-4.3 20.7z"/><path id="_x34_3" class="st4" d="M178.8 169.9c.8.6.9 1.7.3 2.5-.6.8-1.7.9-2.5.3-.8-.6-.9-1.7-.3-2.5.7-.7 1.8-.9 2.5-.3z"/><path id="_x34_2" class="st4" d="m132.5 180.3 11.5-17.6 4-9.3-6 8.1-9.5 18.8z"/><path id="_x34_1" class="st4" d="M172.7 176.7c.6.8.4 1.9-.3 2.5-.8.6-1.9.4-2.5-.3-.6-.8-.4-1.9.3-2.5.8-.6 1.9-.5 2.5.3z"/><path id="_x34_0" class="st4" d="m125.3 174.7 15.7-14 6.2-7.9-7.9 6.2-14 15.7z"/><path id="_x33_9" class="st4" d="M165 181.7c.4.9-.1 1.9-.9 2.3-.9.4-1.9-.1-2.3-.9-.4-.9.1-1.9.9-2.3.9-.5 1.9 0 2.3.9z"/><path id="_x33_8" class="st4" d="m119.7 167.5 18.8-9.5 8.1-6-9.3 4-17.6 11.5z"/><path id="_x33_7" class="st4" d="M156.3 184.5c.1 1-.5 1.8-1.5 2-1 .1-1.8-.5-2-1.5-.1-1 .5-1.8 1.5-2 1-.2 1.9.5 2 1.5z"/><path id="_x33_6" class="st4" d="m116.2 159.1 20.6-4.3 9.3-3.7-10 1.4-19.9 6.6z"/><path id="_x33_5" class="st4" d="M147.2 184.9c-.1 1-1 1.6-2 1.5-1-.1-1.6-1-1.5-2 .1-1 1-1.6 2-1.5.9.2 1.6 1.1 1.5 2z"/><path id="_x33_4" class="st4" d="m115 150 21 1.2 10-1.2-10-1.2-21 1.2z"/><path id="_x33_3" class="st4" d="M138.2 183c-.4.9-1.4 1.3-2.3.9-.9-.4-1.3-1.4-.9-2.3.4-.9 1.4-1.3 2.3-.9.9.4 1.3 1.4.9 2.3z"/><path id="_x33_2" class="st4" d="m116.2 140.9 20 6.6 10 1.4-9.3-3.7-20.7-4.3z"/><path id="_x33_1" class="st4" d="M130.1 178.8c-.6.8-1.7.9-2.5.3-.8-.6-.9-1.7-.3-2.5.6-.8 1.7-.9 2.5-.3.7.7.9 1.8.3 2.5z"/><path id="_x33_0" class="st4" d="m119.7 132.5 17.6 11.5 9.3 4-8.1-6-18.8-9.5z"/><path id="_x32_9" class="st4" d="M123.3 172.7c-.8.6-1.9.4-2.5-.3-.6-.8-.4-1.9.3-2.5.8-.6 1.9-.4 2.5.3.6.8.5 1.9-.3 2.5z"/><path id="_x32_8" class="st4" d="m125.3 125.3 14 15.7 7.9 6.2-6.2-7.9-15.7-14z"/><path id="_x32_7" class="st4" d="M118.3 165c-.9.4-1.9-.1-2.3-.9-.4-.9.1-1.9.9-2.3.9-.4 1.9.1 2.3.9.5.9 0 1.9-.9 2.3z"/><path id="_x32_6" class="st4" d="m132.5 119.7 9.5 18.8 6 8.1-4-9.3-11.5-17.6z"/><path id="_x32_5" class="st4" d="M115.5 156.3c-1 .1-1.8-.5-2-1.5-.1-1 .5-1.8 1.5-2 1-.1 1.8.5 2 1.5.2 1-.5 1.9-1.5 2z"/><path id="_x32_4" class="st4" d="m140.9 116.2 4.3 20.6 3.7 9.3-1.4-10-6.6-19.9z"/><path id="_x32_3" class="st4" d="M115.1 147.2c-1-.1-1.6-1-1.5-2 .1-1 1-1.6 2-1.5 1 .1 1.6 1 1.5 2-.2.9-1.1 1.6-2 1.5z"/><path id="_x32_2_1_" class="st4" d="m150 115-1.2 21 1.2 10 1.2-10-1.2-21z"/><path id="_x32_2" class="st4" d="M117 138.2c-.9-.4-1.3-1.4-.9-2.3.4-.9 1.4-1.3 2.3-.9.9.4 1.3 1.4.9 2.3-.4.9-1.4 1.3-2.3.9z"/><path id="_x32_1" class="st4" d="m159.1 116.2-6.6 20-1.4 10 3.7-9.3 4.3-20.7z"/><path id="_x32_0" class="st4" d="M121.2 130.1c-.8-.6-.9-1.7-.3-2.5.6-.8 1.7-.9 2.5-.3.8.6.9 1.7.3 2.5-.7.7-1.8.9-2.5.3z"/><path id="_x31_9" class="st4" d="M167.5 119.7 156 137.3l-4 9.3 6-8.1 9.5-18.8z"/><path id="_x31_8" class="st4" d="M127.3 123.3c-.6-.8-.4-1.9.3-2.5.8-.6 1.9-.4 2.5.3.6.8.4 1.9-.3 2.5-.8.6-1.9.5-2.5-.3z"/><path id="_x31_7" class="st4" d="m174.7 125.3-15.7 14-6.2 7.9 7.9-6.2 14-15.7z"/><path id="_x31_6" class="st4" d="M135 118.3c-.4-.9.1-1.9.9-2.3.9-.4 1.9.1 2.3.9.4.9-.1 1.9-.9 2.3-.9.5-1.9 0-2.3-.9z"/><path id="_x31_5" class="st4" d="m180.3 132.5-18.8 9.5-8.1 6 9.3-4 17.6-11.5z"/><path id="_x31_4" class="st4" d="M143.7 115.5c-.1-1 .5-1.8 1.5-2 1-.1 1.8.5 2 1.5.1 1-.5 1.8-1.5 2-1 .2-1.9-.5-2-1.5z"/><path id="_x31_3" class="st4" d="m183.8 140.9-20.6 4.3-9.3 3.7 10-1.4 19.9-6.6z"/><path id="_x31_2" class="st4" d="M152.8 115.1c.1-1 1-1.6 2-1.5 1 .1 1.6 1 1.5 2-.1 1-1 1.6-2 1.5-.9-.2-1.6-1.1-1.5-2z"/><path id="_x31_1" class="st4" d="m185 150-21-1.2-10 1.2 10 1.2 21-1.2z"/><path id="_x31_0" class="st4" d="M161.8 117c.4-.9 1.4-1.3 2.3-.9.9.4 1.3 1.4.9 2.3-.4.9-1.4 1.3-2.3.9-.9-.4-1.3-1.4-.9-2.3z"/><path id="_x39_" class="st4" d="m183.8 159.1-20-6.6-10-1.4 9.3 3.7 20.7 4.3z"/><path id="_x38_" class="st4" d="M169.9 121.2c.6-.8 1.7-.9 2.5-.3.8.6.9 1.7.3 2.5-.6.8-1.7.9-2.5.3-.7-.7-.9-1.8-.3-2.5z"/><path id="_x37_" class="st4" d="M180.3 167.5 162.7 156l-9.3-4 8.1 6 18.8 9.5z"/><path id="_x36_" class="st4" d="M176.7 127.3c.8-.6 1.9-.4 2.5.3.6.8.4 1.9-.3 2.5-.8.6-1.9.4-2.5-.3-.6-.8-.5-1.9.3-2.5z"/><path id="_x35_" class="st4" d="m174.7 174.7-14-15.7-7.9-6.2 6.2 7.9 15.7 14z"/><path id="_x34_" class="st4" d="M181.7 135c.9-.4 1.9.1 2.3.9s-.1 1.9-.9 2.3c-.9.4-1.9-.1-2.3-.9-.5-.9 0-1.9.9-2.3z"/><path id="_x33__1_" class="st4" d="m167.5 180.3-9.5-18.8-6-8.1 4 9.3 11.5 17.6z"/><path id="_x32__1_" class="st4" d="M184.5 143.7c1-.1 1.8.5 2 1.5.1 1-.5 1.8-1.5 2-1 .1-1.8-.5-2-1.5-.2-1 .5-1.9 1.5-2z"/><path id="_x31__1_" class="st4" d="m159.1 183.8-4.3-20.6-3.7-9.3 1.4 10 6.6 19.9z"/></g></svg>
