<svg version="1.1" id="Countryflags.com" xmlns="http://www.w3.org/2000/svg" xmlns:xlink="http://www.w3.org/1999/xlink" x="0" y="0" viewBox="0 0 300 300" style="enable-background:new 0 0 300 300" xml:space="preserve"><style>.st1{fill:#fff}.st2{fill:#b22234}</style><defs><circle id="SVGID_1_" cx="150" cy="150" r="150"/></defs><clipPath id="SVGID_00000079444881632042841110000003338851788112434076_"><use xlink:href="#SVGID_1_" style="overflow:visible"/></clipPath><g style="clip-path:url(#SVGID_00000079444881632042841110000003338851788112434076_)"><path id="_x35_9" class="st1" d="M0 0h570v300H0z"/><path id="_x35_8" class="st2" d="M0 0h570v23.1H0z"/><path id="_x35_7" class="st2" d="M0 46.2h570v23.1H0z"/><path id="_x35_6" class="st2" d="M0 92.3h570v23.1H0z"/><path id="_x35_5" class="st2" d="M0 138.5h570v23.1H0z"/><path id="_x35_4" class="st2" d="M0 184.6h570v23.1H0z"/><path id="_x35_3" class="st2" d="M0 230.8h570v23.1H0z"/><path id="_x35_2" class="st2" d="M0 276.9h570V300H0z"/><path id="_x35_1" style="fill:#3c3b6e" d="M0 0h228v161.5H0z"/><path id="_x35_0" class="st1" d="m10.7 13.1 5.4 4-2 6.3 5.4-3.9 5.4 3.9-2-6.3 5.4-4h-6.7l-2.1-6.4-2.1 6.4z"/><path id="_x34_9" class="st1" d="m48.5 13.1 5.4 4-2 6.3 5.4-3.9 5.4 3.9-2-6.3 5.4-4h-6.7l-2.1-6.4-2.1 6.4z"/><path id="_x34_8" class="st1" d="m86.3 13.1 5.4 4-2 6.3 5.4-3.9 5.4 3.9-2-6.3 5.4-4h-6.7l-2.1-6.4-2.1 6.4z"/><path id="_x34_7" class="st1" d="m124.1 13.1 5.4 4-2 6.3 5.4-3.9 5.4 3.9-2-6.3 5.4-4H135l-2.1-6.4-2.1 6.4z"/><path id="_x34_6" class="st1" d="m161.9 13.1 5.4 4-2 6.3 5.4-3.9 5.4 3.9-2-6.3 5.4-4h-6.7l-2.1-6.4-2.1 6.4z"/><path id="_x34_5" class="st1" d="m199.7 13.1 5.4 4-2 6.3 5.4-3.9 5.4 3.9-2-6.3 5.4-4h-6.7l-2.1-6.4-2.1 6.4z"/><path id="_x34_4" class="st1" d="m29.6 29.3 5.4 4-2 6.3 5.4-3.9 5.4 3.9-2-6.3 5.4-4h-6.7l-2.1-6.4-2.1 6.4z"/><path id="_x34_3" class="st1" d="m67.4 29.3 5.4 4-2 6.3 5.4-3.9 5.4 3.9-2-6.3 5.4-4h-6.7l-2.1-6.4-2.1 6.4z"/><path id="_x34_2" class="st1" d="m105.2 29.3 5.4 4-2 6.3 5.4-3.9 5.4 3.9-2-6.3 5.4-4h-6.7l-2.1-6.4-2.1 6.4z"/><path id="_x34_1" class="st1" d="m143 29.3 5.4 4-2 6.3 5.4-3.9 5.4 3.9-2-6.3 5.4-4h-6.7l-2.1-6.4-2.1 6.4z"/><path id="_x34_0" class="st1" d="m180.8 29.3 5.4 4-2 6.3 5.4-3.9 5.4 3.9-2-6.3 5.4-4h-6.7l-2.1-6.4-2.1 6.4z"/><path id="_x33_9" class="st1" d="m10.7 45.5 5.4 4-2 6.3 5.4-3.9 5.4 3.9-2-6.3 5.4-4h-6.7l-2.1-6.4-2.1 6.4z"/><path id="_x33_8" class="st1" d="m48.5 45.5 5.4 4-2 6.3 5.4-3.9 5.4 3.9-2-6.3 5.4-4h-6.7l-2.1-6.4-2.1 6.4z"/><path id="_x33_7_1_" class="st1" d="m86.3 45.5 5.4 4-2 6.3 5.4-3.9 5.4 3.9-2-6.3 5.4-4h-6.7l-2.1-6.4-2.1 6.4z"/><path id="_x33_6_1_" class="st1" d="m124.1 45.5 5.4 4-2 6.3 5.4-3.9 5.4 3.9-2-6.3 5.4-4H135l-2.1-6.4-2.1 6.4z"/><path id="_x33_5_1_" class="st1" d="m161.9 45.5 5.4 4-2 6.3 5.4-3.9 5.4 3.9-2-6.3 5.4-4h-6.7l-2.1-6.4-2.1 6.4z"/><path id="_x33_4_1_" class="st1" d="m199.7 45.5 5.4 4-2 6.3 5.4-3.9 5.4 3.9-2-6.3 5.4-4h-6.7l-2.1-6.4-2.1 6.4z"/><path id="_x33_3_1_" class="st1" d="m30.1 61.8 5.4 3.9-2.1 6.4 5.5-3.9 5.4 3.9-2.1-6.4 5.5-3.9h-6.8l-2-6.4-2.1 6.4z"/><path id="_x33_2_1_" class="st1" d="m67.9 61.8 5.4 3.9-2.1 6.4 5.5-3.9 5.4 3.9-2.1-6.4 5.5-3.9h-6.8l-2-6.4-2.1 6.4z"/><path id="_x33_1_1_" class="st1" d="m105.7 61.8 5.4 3.9-2.1 6.4 5.5-3.9 5.4 3.9-2.1-6.4 5.5-3.9h-6.8l-2-6.4-2.1 6.4z"/><path id="_x33_0_1_" class="st1" d="m143.5 61.8 5.4 3.9-2.1 6.4 5.5-3.9 5.4 3.9-2.1-6.4 5.5-3.9h-6.8l-2-6.4-2.1 6.4z"/><path id="_x32_9_1_" class="st1" d="m181.3 61.8 5.4 3.9-2.1 6.4 5.5-3.9 5.4 3.9-2.1-6.4 5.5-3.9h-6.8l-2-6.4-2.1 6.4z"/><path id="_x32_8_1_" class="st1" d="m11.3 77.8 5.4 4-2.1 6.4 5.5-4 5.4 4-2.1-6.4 5.5-4h-6.8l-2-6.4-2.1 6.4z"/><path id="_x32_7_1_" class="st1" d="m49.1 77.8 5.4 4-2.1 6.4 5.5-4 5.4 4-2.1-6.4 5.5-4h-6.8l-2-6.4-2.1 6.4z"/><path id="_x32_6_1_" class="st1" d="m86.9 77.8 5.4 4-2.1 6.4 5.5-4 5.4 4-2.1-6.4 5.5-4h-6.8l-2-6.4-2.1 6.4z"/><path id="_x32_5_1_" class="st1" d="m124.7 77.8 5.4 4-2.1 6.4 5.5-4 5.4 4-2.1-6.4 5.5-4h-6.8l-2-6.4-2.1 6.4z"/><path id="_x32_4_1_" class="st1" d="m162.5 77.8 5.4 4-2.1 6.4 5.5-4 5.4 4-2.1-6.4 5.5-4h-6.8l-2-6.4-2.1 6.4z"/><path id="_x32_3_1_" class="st1" d="m200.3 77.8 5.4 4-2.1 6.4 5.5-4 5.4 4-2.1-6.4 5.5-4h-6.8l-2-6.4-2.1 6.4z"/><path id="_x32_2_1_" class="st1" d="m11.6 109.7 5.5 4-2.1 6.4 5.4-4 5.5 4-2.1-6.4 5.4-4h-6.7l-2.1-6.4-2 6.4z"/><path id="_x32_1_1_" class="st1" d="m49.4 109.7 5.5 4-2.1 6.4 5.4-4 5.5 4-2.1-6.4 5.4-4h-6.7l-2.1-6.4-2 6.4z"/><path id="_x32_0_1_" class="st1" d="m87.2 109.7 5.5 4-2.1 6.4 5.4-4 5.5 4-2.1-6.4 5.4-4h-6.7l-2.1-6.4-2 6.4z"/><path id="_x31_9_1_" class="st1" d="m125 109.7 5.5 4-2.1 6.4 5.4-4 5.5 4-2.1-6.4 5.4-4h-6.7l-2.1-6.4-2 6.4z"/><path id="_x31_8_1_" class="st1" d="m162.8 109.7 5.5 4-2.1 6.4 5.4-4 5.5 4-2.1-6.4 5.4-4h-6.7l-2.1-6.4-2 6.4z"/><path id="_x31_7_1_" class="st1" d="m200.6 109.7 5.5 4-2.1 6.4 5.4-4 5.5 4-2.1-6.4 5.4-4h-6.7l-2.1-6.4-2 6.4z"/><path id="_x31_6_1_" class="st1" d="m11.2 142 5.4 3.9-2.1 6.4 5.5-3.9 5.4 3.9-2.1-6.4 5.5-3.9H22l-2-6.4-2.1 6.4z"/><path id="_x31_5_1_" class="st1" d="m49 142 5.4 3.9-2.1 6.4 5.5-3.9 5.4 3.9-2.1-6.4 5.5-3.9h-6.8l-2-6.4-2.1 6.4z"/><path id="_x31_4_1_" class="st1" d="m86.8 142 5.4 3.9-2.1 6.4 5.5-3.9 5.4 3.9-2.1-6.4 5.5-3.9h-6.8l-2-6.4-2.1 6.4z"/><path id="_x31_3_1_" class="st1" d="m124.6 142 5.4 3.9-2.1 6.4 5.5-3.9 5.4 3.9-2.1-6.4 5.5-3.9h-6.8l-2-6.4-2.1 6.4z"/><path id="_x31_2_1_" class="st1" d="m162.4 142 5.4 3.9-2.1 6.4 5.5-3.9 5.4 3.9-2.1-6.4 5.5-3.9h-6.8l-2-6.4-2.1 6.4z"/><path id="_x31_1_1_" class="st1" d="m200.2 142 5.4 3.9-2.1 6.4 5.5-3.9 5.4 3.9-2.1-6.4 5.5-3.9H211l-2-6.4-2.1 6.4z"/><path id="_x31_0_1_" class="st1" d="m30.2 93.6 5.4 4-2.1 6.3L39 100l5.4 3.9-2.1-6.3 5.5-4h-6.7L39 87.2l-2.1 6.4z"/><path id="_x39__1_" class="st1" d="m68 93.6 5.4 4-2.1 6.3 5.5-3.9 5.4 3.9-2.1-6.3 5.5-4h-6.7l-2.1-6.4-2.1 6.4z"/><path id="_x38__1_" class="st1" d="m105.8 93.6 5.4 4-2.1 6.3 5.5-3.9 5.4 3.9-2.1-6.3 5.5-4h-6.7l-2.1-6.4-2.1 6.4z"/><path id="_x37__1_" class="st1" d="m143.6 93.6 5.4 4-2.1 6.3 5.5-3.9 5.4 3.9-2.1-6.3 5.5-4h-6.7l-2.1-6.4-2.1 6.4z"/><path id="_x36__1_" class="st1" d="m181.4 93.6 5.4 4-2.1 6.3 5.5-3.9 5.4 3.9-2.1-6.3 5.5-4h-6.7l-2.1-6.4-2.1 6.4z"/><path id="_x35__1_" class="st1" d="m30.1 125.8 5.4 4-2.1 6.4 5.5-4 5.4 4-2.1-6.4 5.5-4h-6.8l-2-6.4-2.1 6.4z"/><path id="_x34_" class="st1" d="m67.9 125.8 5.4 4-2.1 6.4 5.5-4 5.4 4-2.1-6.4 5.5-4h-6.8l-2-6.4-2.1 6.4z"/><path id="_x33_" class="st1" d="m105.7 125.8 5.4 4-2.1 6.4 5.5-4 5.4 4-2.1-6.4 5.5-4h-6.8l-2-6.4-2.1 6.4z"/><path id="_x32__1_" class="st1" d="m143.5 125.8 5.4 4-2.1 6.4 5.5-4 5.4 4-2.1-6.4 5.5-4h-6.8l-2-6.4-2.1 6.4z"/><path id="_x31__1_" class="st1" d="m181.3 125.8 5.4 4-2.1 6.4 5.5-4 5.4 4-2.1-6.4 5.5-4h-6.8l-2-6.4-2.1 6.4z"/></g></svg>
